PathFileType	4	(x/y/z)	S06_PSF_T02
DataRate	CameraRate	NumFrames	NumMarkers	Units	OrigDataRate	OrigDataStartFrame	OrigNumFrames
240	240	9	51	mm	240	51	402
Frame#	Time	Sternum			R.Acromium			L.Acromium			Top.Head			R.ASIS			L.ASIS			R.PSIS			L.PSIS			R.Great.Tro			L.Great.Tro			R.Iliac.Crest			L.Iliac.Crest			V.Sacral			R.Thigh.Upper.Post			R.Thigh.Lower.Ant			R.Thigh.Lower.Post			R.Thigh.Upper.Ant			R.Knee.Lat			R.Knee.Med			R.Shank.Upper.Post			R.Shank.Lower.Ant			R.Shank.Lower.Post			R.Shank.Upper.Ant			R.Ankle.Lat			R.Ankle.Med			R.Heel.Upper			R.Heel.Med			R.Heel.Lat			R.Toe.Lat			R.Toe.Med			R.Toe.Tip			L.Thigh.Upper.Post			L.Thigh.Lower.Ant			L.Thigh.Lower.Post			L.Thigh.Upper.Ant			L.Knee.Lat			L.Knee.Med			L.Shank.Upper.Post			L.Shank.Lower.Ant			L.Shank.Lower.Post			L.Shank.Upper.Ant			L.Ankle.Lat			L.Ankle.Med			L.Heel.Upper			L.Heel.Med			L.Heel.Lat			L.Toe.Lat			L.Toe.Med			L.Toe.Tip			Cervical.Spine			Back			
		X1	Y1	Z1	X2	Y2	Z2	X3	Y3	Z3	X4	Y4	Z4	X5	Y5	Z5	X6	Y6	Z6	X7	Y7	Z7	X8	Y8	Z8	X9	Y9	Z9	X10	Y10	Z10	X11	Y11	Z11	X12	Y12	Z12	X13	Y13	Z13	X14	Y14	Z14	X15	Y15	Z15	X16	Y16	Z16	X17	Y17	Z17	X18	Y18	Z18	X19	Y19	Z19	X20	Y20	Z20	X21	Y21	Z21	X22	Y22	Z22	X23	Y23	Z23	X24	Y24	Z24	X25	Y25	Z25	X26	Y26	Z26	X27	Y27	Z27	X28	Y28	Z28	X29	Y29	Z29	X30	Y30	Z30	X31	Y31	Z31	X32	Y32	Z32	X33	Y33	Z33	X34	Y34	Z34	X35	Y35	Z35	X36	Y36	Z36	X37	Y37	Z37	X38	Y38	Z38	X39	Y39	Z39	X40	Y40	Z40	X41	Y41	Z41	X42	Y42	Z42	X43	Y43	Z43	X44	Y44	Z44	X45	Y45	Z45	X46	Y46	Z46	X47	Y47	Z47	X48	Y48	Z48	X49	Y49	Z49	X50	Y50	Z50	X51	Y51	Z51	

51	0.20833	-1189.1	1286	319.05	-1318.4	1494.1	484.69	-1335.5	1490.3	135.56	-1282.5	1807.4	306.49	NaN	NaN	NaN	NaN	NaN	NaN	-1437.2	1065.2	344.5	-1438.6	1070.7	264.88	-1305.7	968.9	493.73	-1315.6	973.86	137.35	-1334.4	1123.7	475.58	-1303.3	1122.9	156.34	-1451.8	1034.2	307.35	-1293.3	720.64	499.17	-1228.1	640.17	481.45	-1298.6	631.6	486.48	-1222.8	731.36	489.44	-1286.7	524.72	480.83	-1261.1	520.93	351.29	NaN	NaN	NaN	NaN	NaN	NaN	-1538.1	362.96	447.24	-1426.5	366.05	464.23	-1620.7	260.14	422.28	-1594.6	254.3	337.63	-1673.6	296.76	375.04	-1691.4	280.54	339.34	-1704.1	273.46	402.86	-1640.1	102.7	428.26	-1605.4	100.97	312.9	NaN	NaN	NaN	-1202	724.48	163.46	-1144.1	658.41	230.51	-1205.4	635.87	185.29	-1147.9	750.25	204.72	-1203.9	542.55	202.95	-1185.7	555.65	323.05	-1236.4	313.73	216.62	-1168.9	255.3	225.37	-1239.4	242.24	234.85	-1169.9	325.39	212.27	-1187.4	106.82	242.15	-1183.5	128.17	331.11	-1273.6	73.208	283.11	-1264.7	44.465	316	-1259.9	46.857	254.26	-1077.7	46.226	226.98	-1065.5	48.34	346.32	-990.41	63.157	296.78	-1386.3	1544	312.23	-1438.8	1271.4	315.37
52	0.2125	-1183.9	1286.3	319.16	-1313.5	1494.5	484.68	-1329.7	1490.7	135.51	-1277.4	1807.8	306.31	NaN	NaN	NaN	NaN	NaN	NaN	-1432.2	1065.4	344.16	-1433.6	1071.1	264.56	-1300.3	969.16	493.49	-1310.5	974.39	137.08	-1329.5	1123.9	475.39	-1298.1	1123.4	156.14	-1446.8	1034.5	306.95	-1284.1	721.2	499.58	-1218.2	641.54	481.72	-1288.4	632.14	487.01	-1213.9	732.82	489.47	-1275.1	525.51	481.58	-1249.2	521.41	352.03	-1470.8	410.99	469	NaN	NaN	NaN	-1527.2	365.14	448.71	-1415.6	367.5	465.16	-1610.4	263.15	423.54	-1584.4	256.86	338.83	-1663.1	300.06	376.09	-1681	283.76	340.52	-1693.7	277.2	404.09	-1631	105.96	430.32	-1596.4	103.05	315.17	NaN	NaN	NaN	-1198.3	724.46	163.09	-1140.5	658.18	229.98	-1202.1	635.89	185.05	-1143.9	750	204.03	-1200.9	542.56	202.84	-1182.3	555.64	322.85	-1234.8	313.93	216.78	-1167.7	255.09	225.46	-1238.2	242.48	235.05	-1168.2	325.15	212.3	-1186.9	106.88	242.37	-1183	128.14	331.29	-1273.2	73.236	283.3	-1264.6	44.521	316.09	-1259.8	47.039	254.32	-1077.6	46.179	226.96	-1065.3	47.676	346.47	-990.22	62.376	296.91	-1381.1	1544.4	312.13	-1433.7	1271.8	315.09
53	0.21667	-1178.7	1286.7	319.27	-1308.5	1494.8	484.68	-1323.8	1491	135.46	-1272.2	1808.2	306.16	NaN	NaN	NaN	NaN	NaN	NaN	-1427.2	1065.7	343.84	-1428.5	1071.5	264.26	-1294.9	969.44	493.26	-1305.4	974.89	136.83	-1324.6	1124	475.2	-1293	1123.9	155.96	-1441.8	1034.8	306.58	-1274.9	721.84	499.96	-1208.4	643.01	481.94	-1278.3	632.78	487.48	-1205	734.36	489.46	-1263.6	526.42	482.26	-1237.3	522.03	352.69	-1460.6	412.34	469.89	NaN	NaN	NaN	-1516.3	367.22	450.11	-1404.7	368.94	466.02	-1599.9	265.98	424.7	-1574.1	259.23	339.99	-1652.7	302.98	377.02	-1670.6	286.5	341.58	-1683.3	280.51	405.2	-1621.4	109.08	432.46	-1586.8	104.96	317.51	NaN	NaN	NaN	-1194.7	724.43	162.73	-1137	657.93	229.47	-1198.8	635.91	184.81	-1139.9	749.73	203.35	-1198	542.57	202.75	-1179	555.62	322.68	-1233.2	314.12	216.94	-1166.5	254.89	225.55	-1237	242.72	235.27	-1166.6	324.93	212.32	-1186.3	106.94	242.59	-1182.5	128.12	331.46	-1272.8	73.265	283.5	-1264.5	44.574	316.17	-1259.7	47.225	254.38	-1077.5	46.146	226.94	-1065.1	47.052	346.61	-990.05	61.644	297.03	-1375.9	1544.9	312.04	-1428.7	1272.3	314.81
54	0.22083	-1173.6	1287	319.38	-1303.6	1495.2	484.69	-1317.9	1491.3	135.41	-1267	1808.6	306.02	NaN	NaN	NaN	NaN	NaN	NaN	-1422.2	1065.9	343.53	-1423.5	1071.8	263.96	-1289.6	969.76	493.05	-1300.3	975.35	136.6	-1319.7	1124.2	475.02	-1287.9	1124.3	155.77	-1436.8	1035.1	306.22	-1265.8	722.57	500.3	-1198.6	644.59	482.1	-1268.2	633.52	487.91	-1196.2	735.99	489.42	-1252.2	527.45	482.88	-1225.6	522.81	353.29	-1450.1	413.72	470.78	NaN	NaN	NaN	-1505.4	369.18	451.43	-1393.7	370.37	466.82	-1589.3	268.62	425.78	-1563.7	261.42	341.1	-1642.3	305.51	377.82	-1660.1	288.76	342.53	-1672.7	283.38	406.2	-1611.2	112.03	434.67	-1576.6	106.71	319.91	NaN	NaN	NaN	-1191.2	724.4	162.4	-1133.5	657.66	228.97	-1195.7	635.93	184.59	-1136	749.44	202.68	-1195.1	542.58	202.68	-1175.7	555.59	322.52	-1231.7	314.3	217.1	-1165.3	254.7	225.64	-1235.9	242.95	235.49	-1165	324.7	212.35	-1185.8	107.02	242.8	-1182.1	128.11	331.64	-1272.4	73.299	283.69	-1264.5	44.628	316.25	-1259.6	47.413	254.44	-1077.4	46.127	226.93	-1064.9	46.47	346.74	-989.89	60.957	297.14	-1370.7	1545.4	311.96	-1423.6	1272.7	314.53
55	0.225	-1168.5	1287.3	319.49	-1298.7	1495.5	484.72	-1312.1	1491.6	135.37	-1261.8	1809	305.92	NaN	NaN	NaN	NaN	NaN	NaN	-1417.2	1066.2	343.23	-1418.5	1072.2	263.68	-1284.2	970.11	492.84	-1295.3	975.78	136.39	-1314.7	1124.4	474.84	-1282.8	1124.7	155.58	-1431.8	1035.4	305.89	-1256.8	723.39	500.6	-1188.9	646.27	482.2	-1258.2	634.35	488.28	-1187.4	737.7	489.34	-1240.9	528.59	483.44	-1214	523.73	353.81	-1439.2	415.1	471.64	NaN	NaN	NaN	-1494.4	371.01	452.68	-1382.7	371.8	467.55	-1578.6	271.04	426.78	-1553.1	263.4	342.17	-1631.9	307.65	378.51	-1649.5	290.54	343.39	-1662.1	285.82	407.1	-1600.5	114.81	436.95	-1566	108.27	322.37	NaN	NaN	NaN	-1187.7	724.37	162.08	-1130.2	657.38	228.49	-1192.6	635.96	184.39	-1132.1	749.15	202.04	-1192.4	542.59	202.62	-1172.6	555.56	322.37	-1230.3	314.48	217.27	-1164.2	254.51	225.73	-1234.8	243.18	235.71	-1163.5	324.48	212.38	-1185.3	107.1	243.01	-1181.7	128.1	331.82	-1272	73.339	283.89	-1264.4	44.681	316.33	-1259.6	47.603	254.5	-1077.4	46.118	226.92	-1064.7	45.931	346.85	-989.74	60.314	297.24	-1365.6	1545.8	311.89	-1418.6	1273.1	314.25
56	0.22917	-1163.4	1287.6	319.6	-1293.9	1495.8	484.75	-1306.3	1491.9	135.33	-1256.6	1809.5	305.83	NaN	NaN	NaN	NaN	NaN	NaN	-1412.2	1066.5	342.95	-1413.6	1072.6	263.42	-1278.9	970.5	492.65	-1290.3	976.19	136.2	-1309.8	1124.6	474.66	-1277.7	1125	155.39	-1426.9	1035.8	305.59	-1247.9	724.29	500.87	-1179.3	648.03	482.25	-1248.2	635.26	488.61	-1178.8	739.49	489.24	-1229.6	529.83	483.93	-1202.6	524.79	354.27	-1428	416.48	472.46	NaN	NaN	NaN	-1483.4	372.71	453.83	-1371.6	373.22	468.21	-1567.7	273.23	427.72	-1542.3	265.17	343.2	-1621.5	309.39	379.1	-1638.9	291.86	344.17	-1651.3	287.82	407.91	-1589.3	117.38	439.28	-1554.8	109.64	324.86	NaN	NaN	NaN	-1184.3	724.35	161.78	-1126.9	657.08	228.03	-1189.6	635.99	184.19	-1128.3	748.84	201.42	-1189.7	542.59	202.58	-1169.5	555.53	322.22	-1228.9	314.65	217.43	-1163.1	254.34	225.82	-1233.8	243.41	235.93	-1162	324.27	212.41	-1184.9	107.18	243.2	-1181.2	128.1	331.99	-1271.7	73.389	284.08	-1264.4	44.735	316.4	-1259.5	47.795	254.56	-1077.3	46.118	226.91	-1064.6	45.437	346.95	-989.6	59.715	297.33	-1360.4	1546.3	311.83	-1413.6	1273.6	313.97
57	0.23333	-1158.4	1287.9	319.69	-1289	1496.1	484.79	-1300.5	1492.3	135.3	-1251.4	1809.9	305.78	NaN	NaN	NaN	NaN	NaN	NaN	-1407.3	1066.8	342.7	-1408.6	1072.9	263.18	-1273.6	970.92	492.46	-1285.3	976.58	136.03	-1304.9	1124.9	474.49	-1272.6	1125.4	155.21	-1422	1036.1	305.31	-1239	725.26	501.11	-1169.7	649.88	482.24	-1238.3	636.26	488.89	-1170.2	741.34	489.11	-1218.4	531.18	484.35	-1191.2	526	354.65	-1416.6	417.83	473.23	NaN	NaN	NaN	-1472.3	374.26	454.9	-1360.5	374.63	468.8	-1556.7	275.17	428.59	-1531.4	266.7	344.18	-1611	310.74	379.61	-1628.2	292.72	344.89	-1640.4	289.39	408.65	-1577.7	119.74	441.65	-1543.2	110.8	327.37	-1508.1	57.452	371.9	-1180.9	724.34	161.51	-1123.6	656.79	227.59	-1186.6	636.03	184.01	-1124.6	748.53	200.82	-1187.1	542.6	202.54	-1166.5	555.49	322.09	-1227.6	314.82	217.58	-1162	254.17	225.9	-1232.7	243.64	236.14	-1160.6	324.06	212.43	-1184.4	107.27	243.39	-1180.9	128.11	332.15	-1271.3	73.448	284.26	-1264.3	44.791	316.47	-1259.4	47.988	254.62	-1077.2	46.124	226.9	-1064.4	44.988	347.04	-989.47	59.156	297.42	-1355.1	1546.8	311.77	-1408.5	1274	313.69
58	0.2375	-1153.4	1288.3	319.78	-1284.1	1496.4	484.84	-1294.7	1492.6	135.28	-1246.3	1810.3	305.75	NaN	NaN	NaN	NaN	NaN	NaN	-1402.3	1067.2	342.47	-1403.7	1073.3	262.96	-1268.4	971.36	492.28	-1280.4	976.95	135.87	-1300	1125.1	474.32	-1267.5	1125.7	155.02	-1417	1036.4	305.07	-1230.2	726.31	501.31	-1160.2	651.81	482.17	-1228.4	637.34	489.14	-1161.6	743.26	488.96	-1207.3	532.63	484.71	-1180.1	527.34	354.97	-1405.1	419.14	473.95	NaN	NaN	NaN	-1461.2	375.65	455.86	-1349.4	376.01	469.34	-1545.5	276.85	429.4	-1520.3	267.99	345.12	-1600.4	311.69	380.05	-1617.4	293.14	345.56	-1629.4	290.53	409.34	-1565.6	121.86	444.04	-1531.2	111.76	329.89	-1495.7	58.563	374.53	-1177.6	724.34	161.26	-1120.4	656.49	227.18	-1183.7	636.08	183.84	-1120.8	748.23	200.26	-1184.5	542.62	202.51	-1163.6	555.46	321.95	-1226.3	314.99	217.73	-1161	254.02	225.98	-1231.8	243.86	236.35	-1159.2	323.86	212.44	-1184	107.37	243.57	-1180.5	128.13	332.31	-1271	73.516	284.43	-1264.3	44.85	316.53	-1259.3	48.18	254.68	-1077.2	46.134	226.9	-1064.2	44.585	347.11	-989.35	58.638	297.5	-1349.9	1547.2	311.73	-1403.5	1274.5	313.41
59	0.24167	-1148.4	1288.6	319.86	-1279.3	1496.7	484.89	-1289	1493	135.25	-1241.1	1810.8	305.75	NaN	NaN	NaN	NaN	NaN	NaN	-1397.4	1067.5	342.27	-1398.8	1073.7	262.76	-1263.1	971.85	492.12	-1275.5	977.32	135.74	-1295	1125.4	474.16	-1262.5	1126.1	154.84	-1412.1	1036.8	304.85	-1221.6	727.44	501.48	-1150.8	653.81	482.05	-1218.7	638.5	489.34	-1153.2	745.23	488.8	-1196.3	534.17	485.01	-1169	528.82	355.22	-1393.5	420.4	474.59	NaN	NaN	NaN	-1450	376.87	456.73	-1338.2	377.37	469.83	-1534.2	278.26	430.17	-1509.1	269.03	346.03	-1589.8	312.26	380.43	-1606.6	293.14	346.19	-1618.3	291.25	409.97	-1553.1	123.74	446.45	-1518.8	112.51	332.39	-1482.6	59.648	377.23	-1174.3	724.36	161.03	-1117.3	656.19	226.79	-1180.8	636.15	183.68	-1117.2	747.92	199.74	-1182	542.63	202.49	-1160.7	555.42	321.82	-1225	315.16	217.87	-1160.1	253.88	226.05	-1230.8	244.09	236.55	-1157.8	323.67	212.46	-1183.5	107.46	243.74	-1180.1	128.16	332.45	-1270.8	73.594	284.59	-1264.2	44.911	316.58	-1259.2	48.373	254.73	-1077.1	46.146	226.9	-1064.1	44.228	347.16	-989.24	58.157	297.58	-1344.6	1547.7	311.69	-1398.5	1274.9	313.14
